<svg xmlns="http://www.w3.org/2000/svg" xmlns:xlink="http://www.w3.org/1999/xlink" version="1.1" width="256" height="256" viewBox="0 0 256 256" xml:space="preserve">

<defs>
</defs>
<g style="stroke: none; stroke-width: 0; stroke-dasharray: none; stroke-linecap: butt; stroke-linejoin: miter; stroke-miterlimit: 10; fill: none; fill-rule: nonzero; opacity: 1;" transform="translate(1.4065934065934016 1.4065934065934016) scale(2.81 2.81)" >
	<path d="M 45 90 C 20.187 90 0 69.813 0 44.999 C 0 20.187 20.187 0 45 0 c 0.038 0 0.075 0 0.112 0.002 C 69.873 0.063 90 20.226 90 44.999 C 90 69.813 69.813 90 45 90 z" style="stroke: none; stroke-width: 1; stroke-dasharray: none; stroke-linecap: butt; stroke-linejoin: miter; stroke-miterlimit: 10; fill: rgb(46,189,89); fill-rule: nonzero; opacity: 1;" transform=" matrix(1 0 0 1 0 0) " stroke-linecap="round" />
	<path d="M 62.24 65.537 c -0.533 0 -1.073 -0.142 -1.562 -0.44 c -10.196 -6.232 -23.149 -7.612 -38.5 -4.105 c -1.615 0.366 -3.223 -0.641 -3.593 -2.257 c -0.369 -1.615 0.642 -3.224 2.257 -3.593 c 16.93 -3.869 31.386 -2.242 42.965 4.836 c 1.414 0.864 1.859 2.71 0.995 4.124 C 64.237 65.027 63.251 65.537 62.24 65.537 z" style="stroke: none; stroke-width: 1; stroke-dasharray: none; stroke-linecap: butt; stroke-linejoin: miter; stroke-miterlimit: 10; fill: rgb(255,255,255); fill-rule: nonzero; opacity: 1;" transform=" matrix(1 0 0 1 0 0) " stroke-linecap="round" />
	<path d="M 66.917 53.143 c -0.536 0 -1.078 -0.144 -1.568 -0.444 c -11.781 -7.241 -29.776 -9.333 -43.76 -5.089 c -1.587 0.479 -3.261 -0.414 -3.742 -1.999 c -0.481 -1.585 0.414 -3.261 1.999 -3.742 c 15.507 -4.707 35.511 -2.355 48.646 5.719 c 1.411 0.867 1.853 2.715 0.984 4.127 C 68.909 52.635 67.925 53.143 66.917 53.143 z" style="stroke: none; stroke-width: 1; stroke-dasharray: none; stroke-linecap: butt; stroke-linejoin: miter; stroke-miterlimit: 10; fill: rgb(255,255,255); fill-rule: nonzero; opacity: 1;" transform=" matrix(1 0 0 1 0 0) " stroke-linecap="round" />
	<path d="M 72.377 38.806 c -0.521 0 -1.049 -0.136 -1.529 -0.421 c -14.24 -8.458 -37.802 -9.217 -51.464 -5.071 c -1.583 0.483 -3.26 -0.414 -3.742 -2 c -0.481 -1.585 0.414 -3.261 2 -3.742 c 14.881 -4.515 40.625 -3.638 56.271 5.653 c 1.424 0.846 1.894 2.687 1.047 4.111 C 74.398 38.281 73.401 38.806 72.377 38.806 z" style="stroke: none; stroke-width: 1; stroke-dasharray: none; stroke-linecap: butt; stroke-linejoin: miter; stroke-miterlimit: 10; fill: rgb(255,255,255); fill-rule: nonzero; opacity: 1;" transform=" matrix(1 0 0 1 0 0) " stroke-linecap="round" />
</g>
</svg>